/* XPM */
static char *orexcoin16_xpm[] = {
/* width height num_colors chars_per_pixel */
"    16    16      256            2",
/* colors */
"`` c #000000",
"`. c #f6ca4f",
"`# c #edc247",
"`a c #ebbd42",
"`b c #ebbf42",
"`c c #f0c549",
"`d c #f7d65a",
"`e c #e2ba45",
"`f c #e9bc40",
"`g c #e2b33b",
"`h c #d1a43a",
"`i c #c89d3a",
"`j c #c69a38",
"`k c #cb9c32",
"`l c #daa831",
"`m c #e9bb3f",
"`n c #f6db64",
"`o c #e4b841",
"`p c #e8bb40",
"`q c #d3aa45",
"`r c #b5964c",
"`s c #c2a451",
"`t c #d2b355",
"`u c #d4b657",
"`v c #c7aa55",
"`w c #b59546",
"`x c #c0912f",
"`y c #e1af35",
"`z c #f5cc57",
"`A c #d8b13b",
"`B c #e8bd42",
"`C c #c9a64e",
"`D c #bc9c4f",
"`E c #e7bf4a",
"`F c #f6cb4b",
"`G c #f4cc50",
"`H c #f7d054",
"`I c #ffda58",
"`J c #a2915c",
"`K c #766a55",
"`L c #c19433",
"`M c #dfad35",
"`N c #ffdb64",
"`O c #e7ba40",
"`P c #dab551",
"`Q c #b9994d",
"`R c #deb547",
"`S c #93815a",
"`T c #6f665d",
"`U c #756a59",
"`V c #766c58",
"`W c #796e57",
"`X c #dabe5c",
"`Y c #6b6255",
"`Z c #c3942f",
"`0 c #e6b73e",
"`1 c #0000ff",
"`2 c #dbad37",
"`3 c #e8be48",
"`4 c #b89b55",
"`5 c #dcae3a",
"`6 c #d9ae41",
"`7 c #6c6367",
"`8 c #8b7a5b",
".` c #d1ae4c",
".. c #83755a",
".# c #504e5c",
".a c #706757",
".b c #6f6658",
".c c #b9a45c",
".d c #b69647",
".e c #d7a530",
".f c #f7d760",
".g c #e1b33a",
".h c #e3bf55",
".i c #b99649",
".j c #e4b131",
".k c #907b5c",
".l c #8b7960",
".m c #f2c23d",
".n c #a18a57",
".o c #7c6f5f",
".p c #d4b250",
".q c #45455f",
".r c #857758",
".s c #ffdb58",
".t c #c7ab56",
".u c #cb9b32",
".v c #ebc048",
".w c #e7b93f",
".x c #debd5d",
".y c #bf973f",
".z c #ddab30",
".A c #70666f",
".B c #caa245",
".C c #9f8757",
".D c #796d63",
".E c #d0ac4b",
".F c #6f6662",
".G c #968357",
".H c #746a59",
".I c #d6b758",
".J c #c59938",
".K c #eabc41",
".L c #e0c060",
".M c #bd943c",
".N c #dba62c",
".O c #766a70",
".P c #837366",
".Q c #7b6e66",
".R c #cca546",
".S c #6d6468",
".T c #b79a52",
".U c #d0ad4c",
".V c #d4b555",
".W c #c79c3b",
".X c #e1b139",
".Y c #e9c75e",
".Z c #b69045",
".0 c #dda523",
".1 c #776a70",
".2 c #585882",
".3 c #c79f41",
".4 c #70666d",
".5 c #b4954f",
".6 c #88785b",
".7 c #968259",
".8 c #c4a652",
"#` c #d0a43b",
"#. c #ebbe44",
"## c #cc9922",
"#a c #efc953",
"#b c #bc9f5a",
"#c c #917755",
"#d c #796b6f",
"#e c #726874",
"#f c #4f5288",
"#g c #937e5f",
"#h c #c9a245",
"#i c #897861",
"#j c #6d6467",
"#k c #dfb647",
"#l c #e9c04a",
"#m c #b5964d",
"#n c #ddaf3a",
"#o c #f0c94d",
"#p c #e9bd42",
"#q c #e5c869",
"#r c #786c72",
"#s c #bc8f36",
"#t c #716775",
"#u c #827168",
"#v c #71676f",
"#w c #927d5b",
"#x c #daaf40",
"#y c #eabc3f",
"#z c #be9e4f",
"#A c #d0a846",
"#B c #e6ba40",
"#C c #d09726",
"#D c #f1c84d",
"#E c #dec064",
"#F c #716878",
"#G c #a28048",
"#H c #dea622",
"#I c #dba72c",
"#J c #deab30",
"#K c #e4b132",
"#L c #ddae39",
"#M c #bb9a4c",
"#N c #c7a44e",
"#O c #e7ba3f",
"#P c #e6bb44",
"#Q c #d6a32e",
"#R c #f2ca4e",
"#S c #e6c968",
"#T c #bc9e59",
"#U c #b69044",
"#V c #be943b",
"#W c #c0973d",
"#X c #ba9648",
"#Y c #b79a54",
"#Z c #d8b352",
"#0 c #ebbe42",
"#1 c #e2b743",
"#2 c #ca9523",
"#3 c #edbf43",
"#4 c #f2cc54",
"#5 c #e9c75f",
"#6 c #debf61",
"#7 c #dcbc5e",
"#8 c #e3bf56",
"a` c #ebc14a",
"a. c #dead3a",
"a# c #d19b27",
"aa c #e5b43a",
"ab c #eabe3f",
"ac c #ecbe3f",
"ad c #e8b73c",
"ae c #daad35",
"af c #000000",
"ag c #000000",
"ah c #000000",
"ai c #000000",
"aj c #000000",
"ak c #000000",
"al c #000000",
"am c #000000",
"an c #000000",
"ao c #000000",
"ap c #000000",
"aq c #000000",
"ar c #000000",
"as c #000000",
"at c #000000",
"au c #000000",
"av c #000000",
"aw c #000000",
"ax c #000000",
"ay c #000000",
"az c #000000",
"aA c #000000",
"aB c #000000",
"aC c #000000",
"aD c #000000",
"aE c #000000",
"aF c #000000",
"aG c #000000",
"aH c #000000",
"aI c #000000",
"aJ c #000000",
"aK c #000000",
"aL c #000000",
"aM c #000000",
"aN c #000000",
"aO c #000000",
"aP c #000000",
"aQ c #000000",
"aR c #000000",
"aS c #000000",
"aT c #000000",
"aU c #000000",
"aV c #000000",
"aW c #000000",
"aX c #000000",
"aY c #000000",
"aZ c #000000",
"a0 c #000000",
"a1 c #000000",
"a2 c #000000",
"a3 c #000000",
"a4 c #000000",
"a5 c #000000",
"a6 c #000000",
"a7 c #000000",
"a8 c #000000",
/* pixels */
"```````````.`#`a`b`c`d``````````",
"```````e`f`g`h`i`j`k`l`m`n``````",
"`````o`p`q`r`s`t`u`v`w`x`y`z````",
"```A`B`C`D`E`F`G`H`I`J`K`L`M`N``",
"```O`P`Q`f`R`S`T`U`V`W`X`Y`Z`0`1",
"`2`3`4`5`6`7`8.`...#.a.b.c.d.e.f",
".g.h.i.j.k.l.m.n.o.p.q.r.s.t.u.v",
".w.x.y.z.A.B.C.D.E.F.G.H`H.I.J.K",
"`m.L.M.N.O.P.Q.R.S.T.U`T`G.V.W.K",
".X.Y.Z.0.1.2.3.4.5.m.6.7`F.8#`#.",
"###a#b#c#d#e#f#g#h#i#j#k#l#m#n#o",
"``#p#q#r#s#t#u.O#v#w#x#y#z#A#B``",
"``#C#D#E#F#G#H#I#J#K#L#M#N#O#P``",
"````#Q#R#S#T#U#V#W#X#Y#Z#0#1````",
"``````#2#3#4#5#6#7#8a``aa.``````",
"``````````a#aaabacadae``````````"
};
