/* XPM */
static char *orexcoin32_xpm[] = {
/* width height num_colors chars_per_pixel */
"    32    32      256            2",
/* colors */
"`` c #040204",
"`. c #a48234",
"`# c #ecc244",
"`a c #bca254",
"`b c #840204",
"`c c #2c365c",
"`d c #d4a224",
"`e c #bc8614",
"`f c #4c4e5c",
"`g c #dcb234",
"`h c #a4925c",
"`i c #6c5e54",
"`j c #ac5604",
"`k c #fcfe84",
"`l c #2c367c",
"`m c #fcfe04",
"`n c #8c723c",
"`o c #f4d254",
"`p c #e4b22c",
"`q c #ac863c",
"`r c #bc963c",
"`s c #5c565c",
"`t c #84725c",
"`u c #d4a63c",
"`v c #44465c",
"`w c #e4ca64",
"`x c #b4a25c",
"`y c #94825c",
"`z c #344284",
"`A c #e4b644",
"`B c #cc9624",
"`C c #a4926c",
"`D c #343e64",
"`E c #dcaa2c",
"`F c #4c4e7c",
"`G c #fcda5c",
"`H c #a48a54",
"`I c #444a7c",
"`J c #d4b24c",
"`K c #8c7664",
"`L c #ac9a5c",
"`M c #8c6e3c",
"`N c #8c7a54",
"`O c #5c5a84",
"`P c #f4c644",
"`Q c #d4a22c",
"`R c #746a5c",
"`S c #f4ca4c",
"`T c #c4ae5c",
"`U c #344294",
"`V c #ccae54",
"`W c #2c366c",
"`X c #e4ba3c",
"`Y c #b48e3c",
"`Z c #a48654",
"`0 c #e4be44",
"`1 c #d4ba5c",
"`2 c #746a6c",
"`3 c #242e5c",
"`4 c #bc9244",
"`5 c #b4924c",
"`6 c #84724c",
"`7 c #fcd24c",
"`8 c #bc9644",
".` c #e4ae3c",
".. c #94826c",
".# c #cc9e2c",
".a c #54527c",
".b c #8c7e6c",
".c c #e4c254",
".d c #cca23c",
".e c #c48e1c",
".f c #9c7634",
".g c #645e6c",
".h c #d4ae44",
".i c #4c465c",
".j c #c4a65c",
".k c #dca22c",
".l c #242e6c",
".m c #ac924c",
".n c #ecb63c",
".o c #ac8a54",
".p c #5c5a64",
".q c #ecca57",
".r c #947a5c",
".s c #b4720c",
".t c #a48a4c",
".u c #34365a",
".v c #4c4e6c",
".w c #343e84",
".x c #fce26c",
".y c #e4b23c",
".z c #b4863c",
".A c #9c8256",
".B c #3c427c",
".C c #3c3e64",
".D c #fcde6c",
".E c #8c766c",
".F c #3c4a9a",
".G c #ecbe45",
".H c #dcba50",
".I c #7c6e70",
".J c #2c2e58",
".K c #8c724c",
".L c #fcd25c",
".M c #54568c",
".N c #ac925c",
".O c #ecca64",
".P c #a4824c",
".Q c #ecc64b",
".R c #cc8a14",
".S c #343a7c",
".T c #c49631",
".U c #645a58",
".V c #7c7274",
".W c #dcaa3c",
".X c #bcaa74",
".Y c #ecba44",
".Z c #d49624",
".0 c #ac9a74",
".1 c #e4ae34",
".2 c #fcde5f",
".3 c #9c8a68",
".4 c #dcb64c",
".5 c #64627c",
".6 c #d4a62d",
".7 c #7c6e58",
".8 c #f4ce5c",
"#` c #34366c",
"#. c #fcfefc",
"## c #c47a0c",
"#a c #a47e34",
"#b c #ccb65c",
"#c c #444e94",
"#d c #c4aa54",
"#e c #ac8e54",
"#f c #bc9e54",
"#g c #ccaa34",
"#h c #9c7e4c",
"#i c #9c7a4c",
"#j c #645e79",
"#k c #cc921c",
"#l c #444a92",
"#m c #d49e27",
"#n c #947e5c",
"#o c #dcae3c",
"#p c #dca21c",
"#q c #545264",
"#r c #b49a54",
"#s c #947a4c",
"#t c #3c469a",
"#u c #9c8664",
"#v c #ecc654",
"#w c #2c3264",
"#x c #545271",
"#y c #c4a654",
"#z c #c48614",
"#A c #2c3a8c",
"#B c #d4b65c",
"#C c #ecba3c",
"#D c #c4922c",
"#E c #4c4a6c",
"#F c #c4aa6c",
"#G c #343a64",
"#H c #fce67c",
"#I c #3c428c",
"#J c #3c3e74",
"#K c #dcbe5c",
"#L c #bca260",
"#M c #dcb244",
"#N c #44466c",
"#O c #f4c654",
"#P c #c4ae6c",
"#Q c #e4be54",
"#R c #746a7c",
"#S c #8c7644",
"#T c #f4d65c",
"#U c #e4b634",
"#V c #ac8a44",
"#W c #847660",
"#X c #d4aa3f",
"#Y c #e4ba45",
"#Z c #cc9a2c",
"#0 c #a49674",
"#1 c #dcae34",
"#2 c #4c5284",
"#3 c #8c7a5f",
"#4 c #746e54",
"#5 c #f4ce54",
"#6 c #847654",
"#7 c #fcd654",
"#8 c #bc9a48",
"a` c #545682",
"a. c #e4c65c",
"a# c #cca644",
"aa c #4c4a5f",
"ab c #dca630",
"ac c #ac9654",
"ad c #ecce5c",
"ae c #343a5c",
"af c #fce672",
"ag c #9c8657",
"ah c #3c4684",
"ai c #dcbe54",
"aj c #2c325a",
"ak c #8c764e",
"al c #a48648",
"am c #c49a34",
"an c #343a74",
"ao c #dca624",
"ap c #b49e5c",
"aq c #2c3a7c",
"ar c #5c5a5c",
"as c #a48e54",
"at c #ccb254",
"au c #b4964c",
"av c #94866c",
"aw c #c4aa5c",
"ax c #e4b63c",
"ay c #b48a3c",
"az c #8c7a6c",
"aA c #fcd65c",
"aB c #ac965c",
"aC c #ecce64",
"aD c #d49a24",
"aE c #947e4c",
"aF c #c48a14",
"aG c #ecbe3c",
"aH c #3c468c",
"aI c #3c4274",
"aJ c #ecc24c",
"aK c #dcb23c",
"aL c #8c7244",
"aM c #f4d25c",
"aN c #e4b234",
"aO c #ac8644",
"aP c #444664",
"aQ c #a49274",
"aR c #343e6c",
"aS c #dcaa34",
"aT c #fcda64",
"aU c #d4b254",
"aV c #f4c64c",
"aW c #d4a234",
"aX c #f4ca54",
"aY c #2c3674",
"aZ c #b48e44",
"a0 c #e4be4c",
"a1 c #746a74",
"a2 c #fcd254",
"a3 c #cc9e34",
"a4 c #545284",
"a5 c #cca244",
"a6 c #d4ae4c",
"a7 c #ac9254",
"a8 c #5c5a6c",
/* pixels */
"`````````````````````````GaM#5#5#5#TaAaf#.``````````````````````",
"```````````````````S.QaJaxax.yaN.`aN.y#Y.QaA.x``````````````````",
"``````````````.HaJ#Y`X.1aS`Eab`Q`Q`Q#m.k#m.1`0aA.x``````````````",
"````````````#Y`0#C.y.1#g#V#s.K#6.KaL`n`.#D#maD#1.Q.D````````````",
"```````````X#Y.naxa#aE`Kas`Vai#va.a.#B`L#6`M#DaD#m.Y#T``````````",
"````````aK.Y#Y`X#e`t#f.Q`S`S.qaX#5#5aM`GaA#b`i.f#maDaxaT````````",
"``````aK#Y.G`X.A`y#Y`#aJaJ.Q.Q.qaX#5#5aM`G#L`caa`naD`B`X.x``````",
"````#gax`#.GagagaG`0.Ga0aJaV`S`S.q`oa2#7#r`3arad`x`n#m#maJaf````",
"````#1aJ`#au#n#Y`A#Y#Y`#.4as`R`s`s`Rac`haj`s.q.2`V.u.f#m.1`o````",
"``#m`A.Q.4#W#oaxax#Y.Yas#N.l#Gaa`vae.J`3.i.Q`G#d.u`f.7.e#Z`Xaf``",
"``#X`P`S.3`5.yaK.y`X#3aY#E`H`Ja0.Qag#w.uaj`y#d.uaaa.#b`M#m.1aM``",
"`maN`S#Q#WaS#oaKax`H`l.g.h`#.GaVa7`W.U`Varaj.u`fai#7`G#6#D`daJ`k",
".Z#Y#5#L.A.1#1.1`u`F`F#X.Y#Y`#a7`W.U.H`7au`3.uata2aMaAap#a#max.x",
"#m.c`7`h`4`EaS#1ag#Aag#C.4#Ca7an.p.H`S`a.C`D.Jaca2#5#T`1aL.kaN#T",
".6aV#5..amab#X.1`2`Ia5.y`X#eana8#M`P#f#G#x`a.u#4#5#5#5a..K#maN.8",
"`Q#5#5..a3.6ab`E`Oa4.W#U#e.wa8#M`##f#J.v#MaJaParaXaX#5.q#6`Q#1#5",
"`Qa2#5.b#Z`Q.6ab#j#2#1.o.wa8#oaG#8.w#qa6.Q#YaP.U.q.qaX.qak#m.y.q",
"#maX#7av.T`Q`Q`Ea1#c#n#I#j#X`Xau.B#x`VaG.Ga6#``R`S.QaX.c`t.6aNaX",
"`B.QaA#0ay.k`Qab.P#t`z.5.6aN`8.B.aa##C#Y`#ag.la7`S.Q.qaU#S`E.y`o",
".R`A`G#P#i#m#mao.A#t.F`8`p`5aH.aa#`X`A`Xa6#N#N.H`#aJ`SacaOaSax#T",
"`baS`G.qaz#Z.k.P.F.M.F.5.o#la`a#aN.y#C#Xa8aYa7`#.GaJ.Q#3.d.1`0`k",
"``#Za2`G#0`q.P#t#j#Z.r#t#t`I`5aS#oa5`y`I`l#n.G`0a0`##y`N.1axaJ``",
"```e.yaT.q#R.F#j.TaoaZ#l.F#t#l#2#2aH#A`F#e`X`A#Y.Y`0#W.daN#Y.q``",
"````.#a2`G.Xa`#D#paO#c.M`4`Za1.5#j.Ial#Xaxaxax`A.Gag.tax#C`0````",
"````##aS.2`G.0#iaO#l.M.Tabao`Eab`E#1aN#o`g.yaK#C#e#naxax#Y#O````",
"``````#k#YaTaA#0#la`.T#m#m`Q`Q.6ababaS#1#o.yaKag#n#Y`X.Y#Y``````",
"````````#k`#.2aT.X.V.zaD`d#m`Q`Q.6abaS#1#1`8#W.N`0.Y#Y#Y````````",
"``````````#k.Y`G`G.OaQ#W#hay#Z#ZaWa3`r`Z`K#uaU`#.G.Gax``````````",
"````````````.e.ya2aT`G.O#FaQ...b.b...3ap.HaV.QaV`XaK````````````",
"``````````````.s#m`X`o`G`G`GaM`o#5#5#5#5`SaV#Y.y#1``````````````",
"``````````````````#z#m.`#YaV#5a2#5`SaV#Yax#o`Q``````````````````",
"````````````````````````aFaD`Q.6abab`Q#m`j``````````````````````"
};
