/* XPM */
static char *orexcoin64_xpm[] = {
/* width height num_colors chars_per_pixel */
"    64    64      256            2",
/* colors */
"`` c #040204",
"`. c #bc8204",
"`# c #dcc262",
"`a c #fc0204",
"`b c #3c4256",
"`c c #cc921e",
"`d c #646258",
"`e c #544a54",
"`f c #d4a22b",
"`g c #acaa04",
"`h c #ecba3d",
"`i c #dcb624",
"`j c #34428b",
"`k c #545278",
"`l c #9c8249",
"`m c #fcfe04",
"`n c #646279",
"`o c #f4d25b",
"`p c #dca227",
"`q c #242a56",
"`r c #ac8644",
"`s c #3c3a56",
"`t c #54565c",
"`u c #444e84",
"`v c #ac9a5c",
"`w c #ccb25a",
"`x c #2c365c",
"`y c #846a3c",
"`z c #746e59",
"`A c #f4c24c",
"`B c #847264",
"`C c #acaa54",
"`D c #3c4270",
"`E c #cca446",
"`F c #645d78",
"`G c #8c8274",
"`H c #645646",
"`I c #fc8284",
"`J c #74624c",
"`K c #44487f",
"`L c #8c7644",
"`M c #cc9c34",
"`N c #2c3877",
"`O c #545a84",
"`P c #bc9b4b",
"`Q c #dcb74e",
"`R c #ecca54",
"`S c #a48f58",
"`T c #747284",
"`U c #dcaa2c",
"`V c #b48e3c",
"`W c #cc9a24",
"`X c #ac9254",
"`Y c #344397",
"`Z c #444a68",
"`0 c #a48851",
"`1 c #6c6476",
"`2 c #f4da64",
"`3 c #ccaa48",
"`4 c #9c7a3c",
"`5 c #e4bb44",
"`6 c #64595f",
"`7 c #4c5691",
"`8 c #f4cc55",
".` c #ecc44b",
".. c #444a5c",
".# c #545260",
".a c #2c325a",
".b c #746960",
".c c #343e7b",
".d c #bca259",
".e c #dcae3c",
".f c #bc9545",
".g c #6c6a5c",
".h c #d4aa2c",
".i c #dcb23e",
".j c #9c8a57",
".k c #444e93",
".l c #bca654",
".m c #545a91",
".n c #dc9e1c",
".o c #d4ad48",
".p c #64626c",
".q c #545587",
".r c #fcd55a",
".s c #5c5869",
".t c #d4bb60",
".u c #2c3669",
".v c #7c765c",
".w c #dcbe54",
".x c #d49c24",
".y c #bca66c",
".z c #ac8538",
".A c #4c454f",
".B c #cca23a",
".C c #ecbe54",
".D c #94835c",
".E c #7c6f6a",
".F c #847a74",
".G c #444467",
".H c #8c7e5b",
".I c #c49d47",
".J c #c48e1c",
".K c #ac945e",
".L c #3c4a99",
".M c #6c6a7c",
".N c #645244",
".O c #3c4482",
".P c #2c2e58",
".Q c #3c3e68",
".R c #ac9b74",
".S c #84725c",
".T c #fcce34",
".U c #645e54",
".V c #343a78",
".W c #5c5c7a",
".X c #e4ae34",
".Y c #4c4d72",
".Z c #7c6a63",
".0 c #e4b53e",
".1 c #c4ae5c",
".2 c #c48a24",
".3 c #e4c456",
".4 c #d49624",
".5 c #545254",
".6 c #fcbe44",
".7 c #5c5679",
".8 c #5c6294",
"#` c #e4a634",
"#. c #fce261",
"## c #c49e24",
"#a c #9c927c",
"#b c #947654",
"#c c #ccb66c",
"#d c #dc9e40",
"#e c #847e81",
"#f c #fcbe64",
"#g c #ac8e54",
"#h c #8c723c",
"#i c #948a7c",
"#j c #746a54",
"#k c #b48a31",
"#l c #444a94",
"#m c #84775c",
"#n c #f4cb4c",
"#o c #947e5c",
"#p c #7c7a84",
"#q c #645e61",
"#r c #dcbe60",
"#s c #c4ae6c",
"#t c #c4961c",
"#u c #eccd5f",
"#v c #c49b3c",
"#w c #e4b334",
"#x c #443e4c",
"#y c #d4b450",
"#z c #8c6e40",
"#A c #6c5e74",
"#B c #6c5644",
"#C c #bc8f2f",
"#D c #b4944a",
"#E c #fcce64",
"#F c #c4a753",
"#G c #8c7c64",
"#H c #746e7f",
"#I c #b49a64",
"#J c #2c3265",
"#K c #343e86",
"#L c #fce274",
"#M c #b49a50",
"#N c #c4a24c",
"#O c #5c5248",
"#P c #a49270",
"#Q c #b48e44",
"#R c #44445c",
"#S c #6c635c",
"#T c #5c5859",
"#U c #4c4e81",
"#V c #343957",
"#W c #7c705a",
"#X c #8c7664",
"#Y c #d4a644",
"#Z c #7c6644",
"#0 c #4c4a7c",
"#1 c #e4ba4c",
"#2 c #3c4699",
"#3 c #fcdb61",
"#4 c #4c4b57",
"#5 c #e4ad3c",
"#6 c #4c518f",
"#7 c #5c5e8c",
"#8 c #6c6369",
"a` c #34386a",
"a. c #d4a535",
"a# c #9c8557",
"aa c #64668c",
"ab c #8c795b",
"ac c #cc962c",
"ad c #ecbe4c",
"ae c #646484",
"af c #f4d664",
"ag c #dca634",
"ah c #242e64",
"ai c #846e4c",
"aj c #645e84",
"ak c #645854",
"al c #bc9d54",
"am c #7c7684",
"an c #dcab34",
"ao c #cc9a2c",
"ap c #ccac54",
"aq c #9c7e4c",
"ar c #f4ce64",
"as c #ecc654",
"at c #54526c",
"au c #74686c",
"av c #d4ad54",
"aw c #fcd664",
"ax c #d49e2c",
"ay c #4c465c",
"az c #444674",
"aA c #c4922c",
"aB c #6c6e8c",
"aC c #3c448c",
"aD c #5c5c84",
"aE c #e4c664",
"aF c #9c7a54",
"aG c #fcce4c",
"aH c #d4b65c",
"aI c #b49654",
"aJ c #c4a95c",
"aK c #94826c",
"aL c #e4be50",
"aM c #6c5e4c",
"aN c #7c6a4c",
"aO c #9c7e54",
"aP c #444a74",
"aQ c #d4aa3c",
"aR c #8c725c",
"aS c #343a84",
"aT c #b48a3c",
"aU c #645e6c",
"aV c #c4962c",
"aW c #b49a5c",
"aX c #cc9622",
"aY c #544e51",
"aZ c #d4a62c",
"a0 c #ecbe44",
"a1 c #545678",
"a2 c #f4d65c",
"a3 c #dca62c",
"a4 c #242e58",
"a5 c #ac8a47",
"a6 c #3c3e58",
"a7 c #f4c64b",
"a8 c #84766c",
/* pixels */
"````````````````````````````````````````````````````#f`o`8.r.r`oa2.raf.r#3#L````````````````````````````````````````````````````",
"````````````````````````````````````````````aG#u#n`8`8#n`R#n`8#n`8#n`8`8`o.r#3#3#3#3````````````````````````````````````````````",
"````````````````````````````````````````.``8#n.`a7a0.i.ea3`faxaxaxaxax`faZ.e`h#n`o#3#3#3.6``````````````````````````````````````",
"``````````````````````````````````av.`.`.``A.0anaZaZa3aZaZ`fa.`f`f`fax.xax.x`W`W.x.ea7`o#3#.#E``````````````````````````````````",
"````````````````````````````````aL.`a7a0.ean.hanagaga.a3a.`pa.`f`f`f`f`fax.xaxax.xaX`W.x`5.r#3#3`m``````````````````````````````",
"`````````````````````````````5.`.``h.e.eanananan.hanan`U.X`Ua3`f`paZa3a3aZ`f.xax`W.x`W.xaX.x.0#3#3aw````````````````````````````",
"```````````````````````````5.`a0#w.e.e.e.eanan.Xan.B`V`L`J#OaY#4`e`e#OaM#z.zaV`f`pax.x`W.xaXaX.x.`#3#3``````````````````````````",
"``````````````````````#y`5.`.0#w.i.e.X.e`U#w.Baq`6#R.G#q.E.D.K`v`v.K.j.E#q#Ra6aY#haA`f.x`W.x`W`WaX.e#3#3#3``````````````````````",
"````````````````````.ia0.`.0#w.i#w.i#w#w#NaN`D.#ab#F.3`8`o.r`o.r.r.r.r#3.r#u#y.D`t`s#B#k`f.x.x`W.x`c.x`o#3`2````````````````````",
"``````````````````.i`5a0#w.0.i.0.i.0a..Z`D#S.d.``8#n`R#n.`#n`8`R`8`8`o`8`oa2.r#3.r`w`z#V#B#C.x.x`W`WaX.x#n#3af``````````````````",
"````````````````.i`5a0`5.0.0.0.0.0`0.G#q#F.`a7.`.`.`as`R`8`R`8`8#u#n`8`o`o`o`oa2a2#3#3.t.ga6#h.x.x.xaXaX`W#n#3#3````````````````",
"```````````````Q.0a0.0`5.0`Q.0.i.b.G`Sad.`.`.`.`.`as.`.``Ra7`R`R#n`8#u#n`8`o`o`o.r`o.r#.ap#V`q`HaV.x.x`WaXaX#n#3#3``````````````",
"``````````````.ia0`5`5.0.0`h.o`t.7`3.`a0`5.`aL.`.`.`.``Ra7`R`R#n`R`8`8#u`o`8`o`8`o`o#3aJ#V.Pa4.P.A#k.x.xaX.4`W.r#3`I````````````",
"````````````.e`5`5`5`5`5a0`3.Y#8.0a0`5aLa0`5.`a0.3.`.`.`as.``Ra7`R`R`8#n`8`8`o`o`o#3aJ#V.Pa4#R`w#m`s#k.x`W`WaXax.r#3````````````",
"``````````.e#w`h`5`h`5`h.o.Y.ba0`5`5`haLa0aLa0ad.`ad.`.`.`as.``8`R#n`R`8#u#n`8`8#3#F#V.Pa4a6aH#3#3.H`s#C.x.xaXaXan#3#3``````````",
"`````````a.ea0`5a0`5a0`Q.s#8`5`5`5`5`5`5`5a0aLa0`5.`.`.`#n#n#nas.``8`8aG`o`8`o.r.l#V.Pa4#x`w#3.r`2#3.v#xaA.x`W.xaX.`#3#E````````",
"````````an#wa0.3a0`5.`.Eat.i.0.0.0`5`5`5`h#1`5.`.`.`ad#Fa#.b#T`t.#ak`z.jap`R.r.l#V.Pa4a6`w#3.ra2#3`o#S`q#O.x.x`WaX.x.r#3````````",
"``````.h.ea0.3a0`5.``Xaz`E`5.0.0`5.0.0`5`5`5a0.`.ia#.#.u#Jah#J#J.aa4.Pa4.a.5.Ha6.Pa4#x`w#3`o`o.r#u.U`q.a`q#z.x.x`WaX#w#3#3``````",
"```````U#w.`a0.`.`.i`Ka#`5#w#w`Q.0.0`5`5.0a0`5`S.Yah`Na`.u#J#Jahah.Pah.a.a.Pa4.a.P#R`w.r#n`o.r#u.U`q.P.a#Sa6#C.x.xacao.r`2``````",
"`````Ca.a0.`.3a0.`a8`F#w.e#w.i#w.0.0.0.0`5.i.b`Na`a`.u#J.G`6#Wabab#W#T#R.a.u.a.a.P`d#n`o`o.r`R.U`q.Pa4.D#..b#O.x`W.xaX#w#3.3````",
"````a.#w.`.`ad.`av`K#D#w.i.i#w.i.0`Q.0`5.o.s`N.V`N`N`6`S`Q.`.`#n#n#n#n`Sa`.a#J.a.aa4#T.3.ras#T`q.aa4.D#3#3.wa6.z.x.x`W.x`o#3````",
"````a3`5as.`.`a7.v`1#w.e.e.X.i.0.i#w.0.i.s.V.V.V`Z#g`5.`a0aL.`a0.3a7.d.Q`x#J#R#Ra4.a`qak.w.Ua4.Pa4.D.r.ra2#3.v.N`f.x.xac.`#3````",
"```Ma..`.`.`.``Q#U#D.e`U.e.i.e.i#w.i.0au`N#K`N.s.o.``h`5a0`5a0.`a7ala6.u#J.Gap#yaYa4.a.Pa6a4.aa4.D.r`o`o.r#3.t`s#Cax`W.xaga2ar``",
"``aZan.`a7as#n.K`kanan.e.e.e.X.e.i`h`0#K.c.V.W.i`h`5`5#1`5ad`5.`al.Q.u#J.G#F#n`8aLaY.P.a.a.a.P.D.r`8`o`o`o.r.r#q#Z`p.x`M.x`8`2``",
"```f`h`Ras.``8`1a8`Uananan.e.e.e#w#Y#U.c#K.Y`3`h.0`5`5`5`5a0.`al`D.u.u.GaJ#n.`.``8ap.u`x#J.a.H`o`8`o`o`o`o`o#3`S#4.x`f.x`Wa7#3``",
"```fa0`8`Ra7aL#6`V.e`Uananan.e.e#w.D#K`j.c#g`5.0.0.0`5`5`5a0`P`D.u.u.G#Fa7.`.``RaL#q.aa`.a.P`S.r#n`8`8`o`o`o.r.wa6#C`f.x`W.0a2`m",
"`i`f.``8as#naJ#U`fana.anananan.e.e.7#K#KaU#w#w`Q.0.0`5.0a0al`D`Na`az#Fa7aL.`.`aL#q#J.u.a#Ja4#T#n#u`8`o`8`o`o`o`o#4`4a3.xax`U`o#.",
"axag.``8`R#n#P.Wa3a.ananananan.X.f.O.O#K`0.0.i#w.0`Q.0a0#M`D.V`N.G#F.`a0.`.``5#q#J.ua`#T.a.a.a#y`8`8#u#n`o`8`o#3.b#Za3`W`f`f`8a2",
"ax.h`8`R`8#n.F.Z`UaZagaZa.anan`U.D#K`j`KaQ.0.i.0.i.0`h#M`D.V`N.G#Fa0a0`5.``5#q#J.u#J.D`Q`s.a`q`S`o#n`8`8`8`o#n#3.D#Oa3`faxax`8.r",
"ax.e`8`8`8`o#H#X`UaZaga.ananan.Xau`YaC`F.i#5.i#w.i`h#D.O.V.VaP#Na0`5`h.``Q#q#J`N.u#o#n.`.sa4ah#WaG#u`R`8#u`o`8.r.K#4`f`f`f`W`8a2",
".x#w`8#u#n#nae#oa3`faZa3a.a3.han`naC#K.E#w.e.i#5`5#D`K.c.V`K#Na0`5`5a0`Q#q`Na``N#o.`.`#n.ba4.P`d#n#n`R#n#n`8`oa2.d.A`f`f`fax#na2",
"`M#w`o`8`8#u`n`la3`fa3a.a3a.anan.W`Y`Y#X#w.e.e#w#D`K.caSaP.I`5.0.0a0.iaU`Na``N#o.`.`.`a7.Sah#J#T`8`R#n`R`8#u#n`oaJ#R`f`f`faxa7a2",
".x#w`8`o`8`8#7`l`p`f`faZa.a3a.agaDaC#Ka8#wan#w#D`K#K#K`Kal`h.0`5`5.iaU`N.V`N#o.`a0`5.`a7#mah.P#T.``8as`8`R#n`8`o#F#Rax`f`f`fa7a2",
"`W#w`o`8`o`oaeaq`p`f`fag`fa.a3`U`F`Y`Y.E.X#w#D`K#K#K`K.I`5#w.i`5.iaU.V.V.V.Ha0`5a0adaLa7#jah#J#S`8.``R`R#n`R`8`o.d.Aa.aZagax#n`o",
".xanar`o#n`o`TaRaZax`f`f`fa3a.`U.E#2#2`F.X#DaC`j`j#U`P#w#w.i.0.iaU.V#K`N.Ha0a0`5aLa0aL.``t#Jah#W#n.`.`#nas`8`RaG.K#4a3a.`f`f#n`o",
".4aZ`8`o`o.r.F.Z`p.x`f`f`f`f`f`U#o`Y#2#6a#`KaC`j#0`P#w.i.i#w.e.paS.c.V#Ga0`5`5`5`h`5.`.o.Qa`#J`S#nas.`as`R.``8`o.Dak`UaZag`f`8`8",
"`W`f`8`o`o.r#P.W.x`faxax`f`faga3.f#2#2#2aC#2`j#U.f#w.e.X#w.o.paS#K#K.H`h.0`5.0`5#1a0.`a#.u.ua`ap.`.`.`asa7`R`RaG.baN`UagaZag.``o",
".J.x`R`o`oaG.1.qao.xax`fax`f`f`f`faj#2.LaC#2#U.f#wan.e.ean`F#K`j.cab`h.0.0`5`5`5`5`5`5.#a`#J.s.`.`.`.`.`as.`#nas.#aq`Uan`f.e`8`8",
"``aX.`.r`o`oaE`7aT.x`Waxax`fax`f`U#X`Y#2aC#U.f.eanan.e.h`F#K.O#Kab.0.0`Q.0.0.0`5.0`Aa#`Na``N`0a7a0.`.`.`.``R#n#y`D#v`Uaga..0`8`I",
"```c.0.r`o`o.raB.S.nax`W`fax`fa3a5#6#2.L#2#6#v`Uanana.`1#KaC#K#G.0#w.i.0.0.0`5.0a0`E`Da``N.##1aL.`aL.`.`.`.``8`SaYanana.a3.``8``",
"``aX`f`oa2.r.r.R.7`W.xax`Wax`fa5.k#2#2#2.L#2aD.B.Xa.`n#KaC`Yab#w.i#w.i#w`Q.0.ia0.oat`N.ca``X.`a0`5.`ad.`.`.`a7#qai.eananag#n.```",
"``##aX#n.r`o`oaE#6a5.x.xax`f.z#6#2#2.q`1#2.L#2aD.f`1#K#2`Y#X#w.e.e.e#w.i#w.0`5#Nat`N.c`N#Wa0`5a0`5.``5.`ad.``w`D#v.e`Uan.e.`.```",
"`````c`haf.r`o#3#e#8.x`W.xa5.k#2#2#6#D`faj`Y#l#2#2#2#2aCab.X.ean.X.e.e#w.0.ia#az.c.c`N#A.0`5a0aLa0`5.`aL.`a7#m`6.e`Uanana0as````",
"````aX`f`o.ra2.r.t#6#k.n`r.k#2.L#6#Q`p`f`Mae#2.L#2aC#2`F.Ban.X#w#w#w.e`Ea#.7.c#K.c`N#8.i`5`5`5`5`5ad`5a0.`#y`D`V#w.eanan.``8````",
"`````M`c.`.ra2`o.r#e#A`r.k#2#2#6#Q`pax`fa3#v#6#2.L.L#2.L.k.Wau`B.Eau.W`K#K#K`j.c#K`B.i`5.0`5`5`5`h#1`5ad.`#W`6.i.e.e.e.0.`.C````",
"```````ca3af.ra2.raE#6.L#2.L#6#Q.xaxax`fao`1#2.L#2#2#2#2aC#2`Y`Y`jaC#KaC`j#K#K`k#g.0.0.0`5.0`5.0#1`5a0.`al`D#v#w.e.e.ea7.```````",
"```````W`c.`#3.raf#3.R#2#2#6aT.x.x`W`fao`n#2.L#2#Xa#`F.L#2`YaCaC`Y`Y#K#KaC`F`0.e#w.0.0.i.0.0`5`5`5`5a0`Q.Y`L.0.i#w.e`5.`#n``````",
"`````````c`f`o#3a2.r.r#p#2`r.x.x`W.xao`F#2.L#2#Xa3a3a..fa#.E`1aj`F`1.E`0.I.e#w.i#w.i#w.0.0.0.0.0`5`5`h.b.s.i#w.i#w.ea7.`````````",
"`````````g`c`5#3.raf.r#u.8.Z.xaX.xac`n#2.L#2#X`f`f`f`fa3a3`Uana3anan.X.X.e.e.e.e.e.i.i.i.0`Q.0`5.0a0abaz`3.0#w.i#w`haL.X````````",
"```````````c`Wa7#3a2aw#3#r.m.Z.xaX`F#2.L#2#Xax`fax`f`f`fa.a3a.a3.hananananan.e.e.X.i#w#w.i.0.0.0`5#o`D.I`5#w.0.i.0.``h``````````",
"`````````````c`f`o#3a2.r#3.t.mau#A`Y.L#2#Xaxax.xax`f`f`f`p`fa.aga.ag.hanananan.e.e.e.e.i#w.i.0`5ab`Dal`h.0.0`Q#w.`#1````````````",
"`````````````m`c.Xa2awa2.r#3#r#7`Y.L#l#X.x`Wax.xaxaxax`f`f`fa.a3aZaga.an.hananan.e.e.X.e.i.0.e#8#0#Na0`5.i.0.0.``h.T````````````",
"``````````````.2`c#w#3awa2aw#3#uam`Y`1.x.x.xao.x`M.x`fax`f`f`fa.a.a3.hagananananan.e.e#w#w.f.Y.W.oa0`5.0`5.0a0`5ad``````````````",
"`````````````````WaX.0#3.ra2a2awaf.R#6`1#C.x.x`W.x.x`M`f`f`f`f`pa.a.aga.ag.hananan.e#w.B.Z.O.H`5a0`5`5`5.0a0`5`5````````````````",
"```````````````````c`c.0a2#3awa2.r#3#ram#lauaT.x`f.x`f.xaxax`f`f`fa3aZa.aga.anan.X#v#W`K`1ap.`a0`5`5`5`5a0`5.0``````````````````",
"````````````````````#taX.X`o#3awa2aw.raw#cam#6.W#b#Cao`f`p`p`fa3a3aZa3`U`Uag#vaOaU`K`1.d.`.`a0`5a0`5a0a0.0.i````````````````````",
"``````````````````````aA`c`p`R#3.ra2a2a2.r.r#r#aae#6a1#A.SaF`0.za5`raOaR#8a1#U.W`G`wa7.`.``5.`aLa0`5a0.0`h``````````````````````",
"```````````````````````````c.x`5`o#3awa2.r`o.r#3.r#r.y#i`TaeaD.m`OaDae#H`G#IaH.`#na7.`.`ad.`ad`5a0.0.i`M````````````````````````",
"`````````````````````````````c`ca3.`.rawa2a2`o`o`o`o.r.raG`o`R`Rasas`8#n#n#n#nas.`.`.`.`.`.3a0`h.i.0````````````````````````````",
"```````````````````````````````.`c.4`U.``o#3.r`o.r`o`o`o`o`8`8`8`8`8`R`8`R`Ras`R.`as.`.`a0`h.e.e#```````````````````````````````",
"```````````````````````````````````WaX.x`p`h`8`oa2.r`o`o`8`o`o`8`8#u#n#u#n`8#n`Ra7.`a0.0anan`U``````````````````````````````````",
"``````````````````````````````````````.JaXaX.xan`h.`#n`8`o`o`o`o`o`8`8`8`R.`.``h#wanananax``````````````````````````````````````",
"````````````````````````````````````````````aX.4aX.x`MaZ`U#w#w`h`5#w.0#waga3aZagagag````````````````````````````````````````````",
"`````````````````````````````````````````````````````f.x.x.xax`W.x`f`f.xaZan````````````````````````````````````````````````````"
};
